<svg width="83" height="30" viewBox="0 0 83 30" fill="none" xmlns="http://www.w3.org/2000/svg">
<rect width="83" height="30" rx="10" fill="white"/>
<g clip-path="url(#clip0_227_168)">
<path d="M73.7684 13.2491L72.5114 18.4988H72.4737L71.1623 13.2491H69.9767L71.9417 20.5878L70.8189 24.6695H71.971L75.0002 13.2491H73.7684ZM64.8861 8.89268H63.7884V21.0001H64.8861V8.89268ZM60.755 8.89268H58.1155V21.0001H59.2215V16.4169H60.7591C61.0691 16.4343 61.3782 16.3505 61.6683 16.1704C61.9584 15.9903 62.2238 15.7175 62.4491 15.3679C62.6744 15.0182 62.8551 14.5986 62.9807 14.1334C63.1063 13.6682 63.1743 13.1668 63.1808 12.6582C63.1744 12.1486 63.1062 11.6463 62.9804 11.1803C62.8546 10.7143 62.6736 10.2939 62.4479 9.94357C62.2222 9.59324 61.9564 9.31991 61.6658 9.13948C61.3751 8.95904 61.0656 8.87529 60.755 8.89268ZM60.7842 14.7262H59.2215V10.6035H60.7885C61.1218 10.6035 61.4415 10.8206 61.6773 11.2072C61.913 11.5938 62.0454 12.1182 62.0454 12.6649C62.0454 13.2117 61.913 13.736 61.6773 14.1226C61.4415 14.5092 61.1218 14.7264 60.7885 14.7264L60.7842 14.7262ZM67.5927 12.9877C67.1906 12.9498 66.7905 13.1051 66.4414 13.4346C66.0924 13.7641 65.8095 14.2536 65.6276 14.8429L66.608 15.5302C66.7051 15.2387 66.8521 15.0002 67.0307 14.8439C67.2094 14.6876 67.412 14.6204 67.6137 14.6506C67.7521 14.6279 67.8919 14.6503 68.0251 14.7164C68.1582 14.7826 68.2821 14.8913 68.3895 15.0363C68.497 15.1812 68.5859 15.3596 68.6512 15.5611C68.7165 15.7626 68.7569 15.9832 68.77 16.2104V16.3341C68.4186 16.0227 68.0255 15.8597 67.6262 15.8599C66.5746 15.8599 65.502 16.8083 65.502 18.6086C65.502 20.2303 66.3609 21.2748 67.3329 21.2748C67.6095 21.3034 67.8857 21.2087 68.1321 21.0006C68.3784 20.7925 68.5859 20.4788 68.7323 20.0929H68.7742V21.0273H69.8468V16.3688C69.8468 14.218 68.8664 13.0224 67.601 13.0224L67.5927 12.9877ZM67.4628 19.6256C67.1025 19.6256 66.5997 19.3233 66.5997 18.5949C66.5997 17.6604 67.2239 17.3032 67.7687 17.3032C68.12 17.2875 68.4673 17.4276 68.7741 17.7084C68.7337 18.2339 68.5787 18.7176 68.3376 19.0701C68.0965 19.4226 67.7858 19.6199 67.4628 19.6256ZM27.7354 21.261C25.5658 21.2728 23.7937 18.4215 23.7593 14.8636C23.7938 11.3057 25.5658 8.45443 27.7354 8.46619C28.2322 8.45255 28.7257 8.60174 29.1868 8.90501C29.648 9.20828 30.0676 9.65953 30.421 10.2323L29.6627 11.4623C29.1483 10.6358 28.4555 10.1763 27.7354 10.1842C26.1689 10.1842 24.8989 12.267 24.8989 14.8362C24.8989 17.4054 26.1689 19.4882 27.7354 19.4882C28.1015 19.5128 28.4667 19.4111 28.8073 19.1897C29.148 18.9683 29.4565 18.6322 29.713 18.203C30.0539 17.6001 30.2593 16.8245 30.2954 16.0043H27.7354V14.3073H31.3386C31.3779 14.6678 31.3961 15.0335 31.3931 15.3999C31.4293 16.921 31.0963 18.4037 30.4671 19.5228C30.1119 20.1112 29.685 20.5701 29.2143 20.8696C28.7436 21.1691 28.2397 21.3025 27.7354 21.261ZM36.9655 17.1381C36.9794 17.6879 36.9253 18.2365 36.8066 18.7512C36.6879 19.2658 36.5069 19.7357 36.2747 20.1327C36.0424 20.5298 35.7636 20.8457 35.455 21.0615C35.1464 21.2773 34.8143 21.3885 34.4788 21.3885C34.1434 21.3885 33.8113 21.2773 33.5027 21.0615C33.1941 20.8457 32.9153 20.5298 32.683 20.1327C32.4508 19.7357 32.2698 19.2658 32.1511 18.7512C32.0324 18.2365 31.9783 17.6879 31.9922 17.1381C31.9783 16.5884 32.0324 16.0397 32.1511 15.5251C32.2698 15.0104 32.4508 14.5405 32.683 14.1435C32.9153 13.7465 33.1941 13.4306 33.5027 13.2148C33.8113 12.999 34.1434 12.8877 34.4788 12.8877C34.8143 12.8877 35.1464 12.999 35.455 13.2148C35.7636 13.4306 36.0424 13.7465 36.2747 14.1435C36.5069 14.5405 36.6879 15.0104 36.8066 15.5251C36.9253 16.0397 36.9794 16.5884 36.9655 17.1381ZM35.8762 17.1381C35.8946 16.819 35.8721 16.497 35.8103 16.1929C35.7484 15.8888 35.6486 15.6092 35.517 15.3721C35.3855 15.135 35.2252 14.9455 35.0464 14.8159C34.8676 14.6863 34.6743 14.6193 34.4788 14.6193C34.2834 14.6193 34.0901 14.6863 33.9113 14.8159C33.7325 14.9455 33.5722 15.135 33.4407 15.3721C33.3091 15.6092 33.2092 15.8888 33.1474 16.1929C33.0855 16.497 33.0631 16.819 33.0815 17.1381C33.0631 17.4573 33.0855 17.7792 33.1474 18.0833C33.2092 18.3874 33.3091 18.667 33.4407 18.9041C33.5722 19.1412 33.7325 19.3307 33.9113 19.4603C34.0901 19.59 34.2834 19.6569 34.4788 19.6569C34.6743 19.6569 34.8676 19.59 35.0464 19.4603C35.2252 19.3307 35.3855 19.1412 35.517 18.9041C35.6486 18.667 35.7484 18.3874 35.8103 18.0833C35.8721 17.7792 35.8946 17.4573 35.8762 17.1381ZM42.5379 17.1381C42.5379 19.3886 41.4255 21.2129 40.0534 21.2129C38.6813 21.2129 37.5687 19.3886 37.5687 17.1381C37.5687 14.8876 38.6812 13.0633 40.0534 13.0633C41.4256 13.0633 42.5379 14.8876 42.5379 17.1381ZM41.4528 17.1381C41.4712 16.819 41.4488 16.497 41.387 16.1929C41.3251 15.8888 41.2252 15.6092 41.0937 15.3721C40.9621 15.135 40.8018 14.9455 40.6231 14.8159C40.4443 14.6863 40.251 14.6193 40.0555 14.6193C39.86 14.6193 39.6667 14.6863 39.488 14.8159C39.3092 14.9455 39.1489 15.135 39.0173 15.3721C38.8858 15.6092 38.7859 15.8888 38.7241 16.1929C38.6622 16.497 38.6398 16.819 38.6582 17.1381C38.6397 17.4573 38.662 17.7794 38.7238 18.0836C38.7856 18.3879 38.8855 18.6676 39.017 18.9048C39.1486 19.1421 39.3089 19.3316 39.4877 19.4614C39.6665 19.5911 39.8599 19.6581 40.0554 19.6581C40.251 19.6581 40.4443 19.5911 40.6232 19.4614C40.802 19.3316 40.9623 19.1421 41.0938 18.9048C41.2254 18.6676 41.3253 18.3879 41.3871 18.0836C41.4489 17.7794 41.4713 17.4573 41.4528 17.1381ZM47.976 13.2696V20.6701C47.976 23.7072 46.8741 24.9579 45.5753 24.9579C45.0992 24.9645 44.6326 24.7395 44.2344 24.3115C43.8362 23.8835 43.5243 23.2715 43.338 22.5529L44.289 21.8657C44.3876 22.2853 44.5594 22.648 44.783 22.9083C45.0065 23.1687 45.2719 23.3152 45.546 23.3295C46.384 23.3295 46.8951 22.4843 46.8951 20.9106V20.3196H46.8532C46.6889 20.6204 46.4872 20.86 46.2617 21.0223C46.0363 21.1847 45.7922 21.2661 45.546 21.261C44.1576 21.261 43.0321 19.4152 43.0321 17.1381C43.0321 14.861 44.1576 13.0152 45.546 13.0152C45.7938 13.0064 46.04 13.0839 46.2682 13.2426C46.4964 13.4014 46.7015 13.6376 46.87 13.9359H46.9118V13.2489H47.976V13.2696ZM46.9999 17.1588C47.0153 16.8478 46.9924 16.5349 46.9326 16.2387C46.8729 15.9424 46.7775 15.6689 46.652 15.4343C46.5266 15.1998 46.3736 15.0089 46.2024 14.8731C46.0311 14.7373 45.8449 14.6594 45.6549 14.6438C45.4612 14.6544 45.2707 14.7282 45.0946 14.8609C44.9184 14.9936 44.7602 15.1826 44.6291 15.4167C44.4981 15.6509 44.3968 15.9256 44.3312 16.2247C44.2656 16.5238 44.237 16.8414 44.2471 17.1588C44.2381 17.4741 44.2676 17.7892 44.3339 18.0855C44.4001 18.3819 44.5018 18.6536 44.6329 18.8846C44.7641 19.1156 44.922 19.3014 45.0975 19.431C45.273 19.5606 45.4625 19.6315 45.6549 19.6394C45.8437 19.6273 46.0292 19.5528 46.2001 19.4204C46.371 19.288 46.5238 19.1003 46.6494 18.8687C46.775 18.6371 46.8708 18.3662 46.931 18.0724C46.9912 17.7786 47.0146 17.4678 46.9999 17.1588ZM49.9159 8.90597V21.0068H48.8098V8.90619L49.9159 8.90597ZM54.2732 18.4988L55.1364 19.4333C54.9059 19.9972 54.5941 20.4591 54.2287 20.7779C53.8632 21.0967 53.4554 21.2626 53.0415 21.2608C52.7122 21.2685 52.3854 21.1665 52.0809 20.9611C51.7763 20.7557 51.5004 20.451 51.2697 20.0656C51.039 19.6802 50.8583 19.2221 50.7387 18.7189C50.6191 18.2157 50.563 17.6779 50.5737 17.1381C50.4721 15.2169 51.2657 13.4765 52.4182 13.0932C53.5705 12.7098 54.7148 13.8057 55.0777 15.6402L55.1908 16.1143L51.839 18.3886C51.9435 18.7736 52.1158 19.0985 52.3338 19.3215C52.5519 19.5444 52.8056 19.6551 53.0624 19.6394C53.3066 19.6331 53.5459 19.5252 53.7577 19.3256C53.9695 19.1261 54.1469 18.8415 54.2732 18.4986M51.6296 17.0142L53.8837 15.4888C53.7965 15.2086 53.661 14.9766 53.4942 14.8215C53.3274 14.6663 53.1364 14.5949 52.9451 14.616C52.7622 14.6291 52.5827 14.7019 52.4171 14.8301C52.2515 14.9583 52.1031 15.1393 51.9807 15.3626C51.8582 15.5858 51.7641 15.8469 51.7038 16.1304C51.6435 16.414 51.6183 16.7144 51.6296 17.0142Z" fill="#5F6368"/>
<path d="M12.6728 14.4998L7.05029 24.161C7.11342 24.528 7.22687 24.8665 7.38198 25.1506C7.53709 25.4346 7.72974 25.6568 7.94522 25.8C8.1607 25.9433 8.3933 26.0038 8.62523 25.977C8.85716 25.9502 9.08229 25.8368 9.2834 25.6455L15.6099 19.736L12.6728 14.4998Z" fill="#EA4335"/>
<path d="M18.3584 12.8572L15.6225 10.2874L12.543 14.7196L15.635 19.7219L18.3501 17.1795C18.5906 16.9729 18.7921 16.6623 18.9327 16.2814C19.0732 15.9004 19.1476 15.4636 19.1476 15.0183C19.1476 14.573 19.0732 14.1362 18.9327 13.7553C18.7921 13.3743 18.5906 13.0638 18.3501 12.8572H18.3584Z" fill="#FBBC04"/>
<path d="M7.05035 5.82764C7.01646 6.0338 6.99953 6.24646 7.00001 6.45997V23.5287C7.00041 23.7422 7.01728 23.9545 7.05035 24.1608L12.8657 14.7472L7.05035 5.82764Z" fill="#4285F4"/>
<path d="M12.7147 14.9943L15.6224 10.2874L9.30412 4.3507C9.0664 4.12231 8.79603 4.00131 8.52053 4C8.1879 3.99895 7.86418 4.17634 7.59874 4.5051C7.3333 4.83387 7.14069 5.29599 7.05029 5.82099L12.7147 14.9943Z" fill="#34A853"/>
</g>
<defs>
<clipPath id="clip0_227_168">
<rect width="68" height="22" fill="white" transform="translate(7 4)"/>
</clipPath>
</defs>
</svg>
