<svg width="790" height="100" viewBox="0 0 790 100" fill="none" xmlns="http://www.w3.org/2000/svg">
<rect width="790" height="100" rx="7" fill="#02295D"/>
<rect x="41.5" y="27.5" width="507" height="45" rx="22.5" fill="white" stroke="#FBBC04"/>
<path d="M514 53.172L518.95 48.222L520.364 49.636L514 56L507.636 49.636L509.05 48.222L514 53.172Z" fill="#FBBC04"/>
<path d="M77.2784 55V43.3636H81.4261C82.3314 43.3636 83.0814 43.5284 83.6761 43.858C84.2708 44.1875 84.7159 44.6383 85.0114 45.2102C85.3068 45.7784 85.4545 46.4186 85.4545 47.1307C85.4545 47.8466 85.3049 48.4905 85.0057 49.0625C84.7102 49.6307 84.2633 50.0814 83.6648 50.4148C83.0701 50.7443 82.322 50.9091 81.4205 50.9091H78.5682V49.4205H81.2614C81.8333 49.4205 82.2973 49.322 82.6534 49.125C83.0095 48.9242 83.2708 48.6515 83.4375 48.3068C83.6042 47.9621 83.6875 47.5701 83.6875 47.1307C83.6875 46.6913 83.6042 46.3011 83.4375 45.9602C83.2708 45.6193 83.0076 45.3523 82.6477 45.1591C82.2917 44.9659 81.822 44.8693 81.2386 44.8693H79.0341V55H77.2784ZM87.3924 55V46.2727H89.0913V55H87.3924ZM88.2504 44.9261C87.9549 44.9261 87.7011 44.8277 87.489 44.6307C87.2807 44.4299 87.1765 44.1913 87.1765 43.9148C87.1765 43.6345 87.2807 43.3958 87.489 43.1989C87.7011 42.9981 87.9549 42.8977 88.2504 42.8977C88.5458 42.8977 88.7977 42.9981 89.0061 43.1989C89.2182 43.3958 89.3242 43.6345 89.3242 43.9148C89.3242 44.1913 89.2182 44.4299 89.0061 44.6307C88.7977 44.8277 88.5458 44.9261 88.2504 44.9261ZM93.0917 43.3636V55H91.3928V43.3636H93.0917ZM95.3932 55V46.2727H97.092V55H95.3932ZM96.2511 44.9261C95.9557 44.9261 95.7019 44.8277 95.4898 44.6307C95.2814 44.4299 95.1773 44.1913 95.1773 43.9148C95.1773 43.6345 95.2814 43.3958 95.4898 43.1989C95.7019 42.9981 95.9557 42.8977 96.2511 42.8977C96.5466 42.8977 96.7985 42.9981 97.0068 43.1989C97.2189 43.3958 97.325 43.6345 97.325 43.9148C97.325 44.1913 97.2189 44.4299 97.0068 44.6307C96.7985 44.8277 96.5466 44.9261 96.2511 44.9261ZM101.092 49.8182V55H99.3935V43.3636H101.07V47.6932H101.178C101.382 47.2235 101.695 46.8504 102.115 46.5739C102.536 46.2973 103.085 46.1591 103.763 46.1591C104.361 46.1591 104.884 46.2822 105.331 46.5284C105.782 46.7746 106.13 47.142 106.376 47.6307C106.626 48.1155 106.751 48.7216 106.751 49.4489V55H105.053V49.6534C105.053 49.0133 104.888 48.517 104.558 48.1648C104.229 47.8087 103.77 47.6307 103.183 47.6307C102.782 47.6307 102.422 47.7159 102.104 47.8864C101.789 48.0568 101.541 48.3068 101.359 48.6364C101.181 48.9621 101.092 49.3561 101.092 49.8182ZM113.421 55V43.3636H117.683C118.508 43.3636 119.192 43.5 119.734 43.7727C120.275 44.0417 120.681 44.4072 120.95 44.8693C121.219 45.3277 121.353 45.8447 121.353 46.4205C121.353 46.9053 121.264 47.3144 121.086 47.6477C120.908 47.9773 120.669 48.2424 120.37 48.4432C120.075 48.6402 119.749 48.7841 119.393 48.875V48.9886C119.779 49.0076 120.156 49.1326 120.524 49.3636C120.895 49.5909 121.202 49.9148 121.444 50.3352C121.686 50.7557 121.808 51.267 121.808 51.8693C121.808 52.464 121.667 52.9981 121.387 53.4716C121.111 53.9413 120.683 54.3144 120.103 54.5909C119.524 54.8636 118.783 55 117.882 55H113.421ZM115.177 53.4943H117.711C118.552 53.4943 119.154 53.3314 119.518 53.0057C119.882 52.6799 120.063 52.2727 120.063 51.7841C120.063 51.4167 119.971 51.0795 119.785 50.7727C119.599 50.4659 119.334 50.2216 118.989 50.0398C118.649 49.858 118.243 49.767 117.774 49.767H115.177V53.4943ZM115.177 48.3977H117.529C117.923 48.3977 118.277 48.322 118.592 48.1705C118.91 48.0189 119.162 47.8068 119.347 47.5341C119.537 47.2576 119.632 46.9318 119.632 46.5568C119.632 46.0758 119.463 45.6723 119.126 45.3466C118.789 45.0208 118.272 44.858 117.575 44.858H115.177V48.3977ZM123.77 55V46.2727H125.469V55H123.77ZM124.628 44.9261C124.332 44.9261 124.078 44.8277 123.866 44.6307C123.658 44.4299 123.554 44.1913 123.554 43.9148C123.554 43.6345 123.658 43.3958 123.866 43.1989C124.078 42.9981 124.332 42.8977 124.628 42.8977C124.923 42.8977 125.175 42.9981 125.383 43.1989C125.595 43.3958 125.701 43.6345 125.701 43.9148C125.701 44.1913 125.595 44.4299 125.383 44.6307C125.175 44.8277 124.923 44.9261 124.628 44.9261ZM131.037 55.1705C130.333 55.1705 129.704 54.9905 129.151 54.6307C128.601 54.267 128.17 53.75 127.855 53.0795C127.545 52.4053 127.389 51.5966 127.389 50.6534C127.389 49.7102 127.547 48.9034 127.861 48.233C128.179 47.5625 128.615 47.0492 129.168 46.6932C129.721 46.3371 130.348 46.1591 131.048 46.1591C131.59 46.1591 132.026 46.25 132.355 46.4318C132.689 46.6098 132.946 46.8182 133.128 47.0568C133.314 47.2955 133.458 47.5057 133.56 47.6875H133.662V43.3636H135.361V55H133.702V53.642H133.56C133.458 53.8277 133.31 54.0398 133.117 54.2784C132.927 54.517 132.666 54.7254 132.333 54.9034C131.999 55.0814 131.567 55.1705 131.037 55.1705ZM131.412 53.7216C131.901 53.7216 132.314 53.5928 132.651 53.3352C132.992 53.0739 133.249 52.7121 133.423 52.25C133.601 51.7879 133.69 51.25 133.69 50.6364C133.69 50.0303 133.603 49.5 133.429 49.0455C133.255 48.5909 132.999 48.2367 132.662 47.983C132.325 47.7292 131.908 47.6023 131.412 47.6023C130.901 47.6023 130.475 47.7348 130.134 48C129.793 48.2652 129.535 48.6269 129.361 49.0852C129.19 49.5436 129.105 50.0606 129.105 50.6364C129.105 51.2197 129.192 51.7443 129.367 52.2102C129.541 52.6761 129.798 53.0455 130.139 53.3182C130.484 53.5871 130.908 53.7216 131.412 53.7216ZM140.341 55.1932C139.788 55.1932 139.288 55.0909 138.841 54.8864C138.394 54.678 138.04 54.3769 137.779 53.983C137.521 53.589 137.393 53.1061 137.393 52.5341C137.393 52.0417 137.487 51.6364 137.677 51.3182C137.866 51 138.122 50.7481 138.444 50.5625C138.766 50.3769 139.126 50.2367 139.523 50.142C139.921 50.0473 140.326 49.9754 140.739 49.9261C141.262 49.8655 141.686 49.8163 142.012 49.7784C142.338 49.7367 142.574 49.6705 142.722 49.5795C142.87 49.4886 142.944 49.3409 142.944 49.1364V49.0966C142.944 48.6004 142.804 48.2159 142.523 47.9432C142.247 47.6705 141.834 47.5341 141.285 47.5341C140.713 47.5341 140.262 47.661 139.932 47.9148C139.607 48.1648 139.381 48.4432 139.256 48.75L137.66 48.3864C137.849 47.8561 138.126 47.428 138.489 47.1023C138.857 46.7727 139.279 46.5341 139.756 46.3864C140.233 46.2348 140.735 46.1591 141.262 46.1591C141.61 46.1591 141.98 46.2008 142.37 46.2841C142.764 46.3636 143.131 46.5114 143.472 46.7273C143.817 46.9432 144.099 47.2519 144.319 47.6534C144.538 48.0511 144.648 48.5682 144.648 49.2045V55H142.989V53.8068H142.921C142.811 54.0265 142.646 54.2424 142.427 54.4545C142.207 54.6667 141.925 54.8428 141.58 54.983C141.235 55.1231 140.823 55.1932 140.341 55.1932ZM140.711 53.8295C141.18 53.8295 141.582 53.7367 141.915 53.5511C142.252 53.3655 142.508 53.1231 142.682 52.8239C142.86 52.5208 142.949 52.197 142.949 51.8523V50.7273C142.889 50.7879 142.771 50.8447 142.597 50.8977C142.427 50.947 142.232 50.9905 142.012 51.0284C141.792 51.0625 141.578 51.0947 141.37 51.125C141.162 51.1515 140.987 51.1742 140.847 51.1932C140.518 51.2348 140.216 51.3049 139.944 51.4034C139.675 51.5019 139.459 51.6439 139.296 51.8295C139.137 52.0114 139.057 52.2538 139.057 52.5568C139.057 52.9773 139.213 53.2955 139.523 53.5114C139.834 53.7235 140.23 53.8295 140.711 53.8295ZM148.626 49.8182V55H146.927V46.2727H148.558V47.6932H148.666C148.866 47.2311 149.181 46.8598 149.609 46.5795C150.041 46.2992 150.584 46.1591 151.24 46.1591C151.834 46.1591 152.355 46.2841 152.802 46.5341C153.249 46.7803 153.596 47.1477 153.842 47.6364C154.088 48.125 154.211 48.7292 154.211 49.4489V55H152.512V49.6534C152.512 49.0208 152.348 48.5265 152.018 48.1705C151.688 47.8106 151.236 47.6307 150.66 47.6307C150.266 47.6307 149.916 47.7159 149.609 47.8864C149.306 48.0568 149.065 48.3068 148.887 48.6364C148.713 48.9621 148.626 49.3561 148.626 49.8182ZM160.165 58.4545C159.471 58.4545 158.875 58.3636 158.375 58.1818C157.879 58 157.473 57.7595 157.159 57.4602C156.845 57.161 156.61 56.8333 156.454 56.4773L157.915 55.875C158.017 56.0417 158.153 56.2178 158.324 56.4034C158.498 56.5928 158.733 56.7538 159.028 56.8864C159.328 57.0189 159.712 57.0852 160.182 57.0852C160.826 57.0852 161.358 56.928 161.778 56.6136C162.199 56.303 162.409 55.8068 162.409 55.125V53.4091H162.301C162.199 53.5947 162.051 53.8011 161.858 54.0284C161.668 54.2557 161.407 54.4527 161.074 54.6193C160.74 54.786 160.307 54.8693 159.773 54.8693C159.083 54.8693 158.462 54.7083 157.909 54.3864C157.36 54.0606 156.924 53.5814 156.602 52.9489C156.284 52.3125 156.125 51.5303 156.125 50.6023C156.125 49.6742 156.282 48.8788 156.596 48.2159C156.915 47.553 157.35 47.0455 157.903 46.6932C158.456 46.3371 159.083 46.1591 159.784 46.1591C160.326 46.1591 160.763 46.25 161.096 46.4318C161.43 46.6098 161.689 46.8182 161.875 47.0568C162.064 47.2955 162.21 47.5057 162.312 47.6875H162.437V46.2727H164.102V55.1932C164.102 55.9432 163.928 56.5587 163.579 57.0398C163.231 57.5208 162.759 57.8769 162.165 58.108C161.574 58.339 160.907 58.4545 160.165 58.4545ZM160.148 53.4602C160.636 53.4602 161.049 53.3466 161.386 53.1193C161.727 52.8883 161.985 52.5587 162.159 52.1307C162.337 51.6989 162.426 51.1818 162.426 50.5795C162.426 49.9924 162.339 49.4754 162.165 49.0284C161.99 48.5814 161.735 48.233 161.398 47.983C161.06 47.7292 160.644 47.6023 160.148 47.6023C159.636 47.6023 159.21 47.7348 158.869 48C158.528 48.2614 158.271 48.6174 158.096 49.0682C157.926 49.5189 157.841 50.0227 157.841 50.5795C157.841 51.1515 157.928 51.6534 158.102 52.0852C158.276 52.517 158.534 52.8542 158.875 53.0966C159.22 53.339 159.644 53.4602 160.148 53.4602ZM170.209 44.875V43.3636H179.215V44.875H175.584V55H173.834V44.875H170.209ZM183.581 55.1761C182.721 55.1761 181.98 54.9924 181.359 54.625C180.742 54.2538 180.264 53.733 179.927 53.0625C179.594 52.3883 179.427 51.5985 179.427 50.6932C179.427 49.7992 179.594 49.0114 179.927 48.3295C180.264 47.6477 180.734 47.1155 181.336 46.733C181.942 46.3504 182.651 46.1591 183.461 46.1591C183.954 46.1591 184.431 46.2405 184.893 46.4034C185.355 46.5663 185.77 46.822 186.137 47.1705C186.505 47.5189 186.795 47.9716 187.007 48.5284C187.219 49.0814 187.325 49.7538 187.325 50.5455V51.1477H180.387V49.875H185.66C185.66 49.428 185.569 49.0322 185.387 48.6875C185.206 48.339 184.95 48.0644 184.62 47.8636C184.295 47.6629 183.912 47.5625 183.473 47.5625C182.995 47.5625 182.579 47.6799 182.223 47.9148C181.87 48.1458 181.598 48.4489 181.404 48.8239C181.215 49.1951 181.12 49.5985 181.12 50.0341V51.0284C181.12 51.6117 181.223 52.108 181.427 52.517C181.635 52.9261 181.925 53.2386 182.296 53.4545C182.668 53.6667 183.101 53.7727 183.598 53.7727C183.92 53.7727 184.213 53.7273 184.478 53.6364C184.743 53.5417 184.973 53.4015 185.166 53.2159C185.359 53.0303 185.507 52.8011 185.609 52.5284L187.217 52.8182C187.088 53.2917 186.857 53.7064 186.524 54.0625C186.194 54.4148 185.779 54.6894 185.279 54.8864C184.783 55.0795 184.217 55.1761 183.581 55.1761ZM195.766 48.4034L194.226 48.6761C194.161 48.4792 194.059 48.2917 193.919 48.1136C193.783 47.9356 193.597 47.7898 193.362 47.6761C193.127 47.5625 192.834 47.5057 192.481 47.5057C192 47.5057 191.599 47.6136 191.277 47.8295C190.955 48.0417 190.794 48.3163 190.794 48.6534C190.794 48.9451 190.902 49.1799 191.118 49.358C191.334 49.536 191.682 49.6818 192.163 49.7955L193.55 50.1136C194.353 50.2992 194.951 50.5852 195.345 50.9716C195.739 51.358 195.936 51.8598 195.936 52.4773C195.936 53 195.785 53.4659 195.481 53.875C195.182 54.2803 194.764 54.5985 194.226 54.8295C193.692 55.0606 193.072 55.1761 192.368 55.1761C191.391 55.1761 190.593 54.9678 189.976 54.5511C189.358 54.1307 188.98 53.5341 188.839 52.7614L190.481 52.5114C190.584 52.9394 190.794 53.2633 191.112 53.483C191.43 53.6989 191.845 53.8068 192.356 53.8068C192.913 53.8068 193.358 53.6913 193.692 53.4602C194.025 53.2254 194.192 52.9394 194.192 52.6023C194.192 52.3295 194.089 52.1004 193.885 51.9148C193.684 51.7292 193.375 51.589 192.959 51.4943L191.481 51.1705C190.667 50.9848 190.065 50.6894 189.675 50.2841C189.288 49.8788 189.095 49.3655 189.095 48.7443C189.095 48.2292 189.239 47.7784 189.527 47.392C189.815 47.0057 190.213 46.7045 190.72 46.4886C191.228 46.2689 191.809 46.1591 192.464 46.1591C193.408 46.1591 194.15 46.3636 194.692 46.7727C195.233 47.178 195.591 47.7216 195.766 48.4034ZM201.894 46.2727V47.6364H197.127V46.2727H201.894ZM198.405 44.1818H200.104V52.4375C200.104 52.767 200.153 53.0152 200.252 53.1818C200.35 53.3447 200.477 53.4564 200.632 53.517C200.792 53.5739 200.964 53.6023 201.149 53.6023C201.286 53.6023 201.405 53.5928 201.507 53.5739C201.61 53.5549 201.689 53.5398 201.746 53.5284L202.053 54.9318C201.954 54.9697 201.814 55.0076 201.632 55.0455C201.451 55.0871 201.223 55.1098 200.951 55.1136C200.504 55.1212 200.087 55.0417 199.701 54.875C199.314 54.7083 199.002 54.4508 198.763 54.1023C198.524 53.7538 198.405 53.3163 198.405 52.7898V44.1818Z" fill="#636262"/>
<rect x="605.5" y="27.5" width="122" height="45" rx="22.5" fill="#FBBC04" stroke="#FBBC04"/>
<path d="M628.278 43.3636H630.409L634.114 52.4091H634.25L637.955 43.3636H640.085V55H638.415V46.5795H638.307L634.875 54.983H633.489L630.057 46.5739H629.949V55H628.278V43.3636ZM648.046 51.3807V46.2727H649.75V55H648.08V53.4886H647.989C647.788 53.9545 647.466 54.3428 647.023 54.6534C646.584 54.9602 646.036 55.1136 645.381 55.1136C644.82 55.1136 644.324 54.9905 643.892 54.7443C643.464 54.4943 643.127 54.125 642.881 53.6364C642.639 53.1477 642.517 52.5436 642.517 51.8239V46.2727H644.216V51.6193C644.216 52.214 644.381 52.6875 644.711 53.0398C645.04 53.392 645.468 53.5682 645.995 53.5682C646.313 53.5682 646.629 53.4886 646.944 53.3295C647.262 53.1705 647.525 52.9299 647.733 52.608C647.945 52.286 648.05 51.8769 648.046 51.3807ZM653.748 43.3636V55H652.049V43.3636H653.748ZM658.589 55.1932C658.036 55.1932 657.536 55.0909 657.089 54.8864C656.642 54.678 656.288 54.3769 656.027 53.983C655.769 53.589 655.64 53.1061 655.64 52.5341C655.64 52.0417 655.735 51.6364 655.924 51.3182C656.114 51 656.369 50.7481 656.691 50.5625C657.013 50.3769 657.373 50.2367 657.771 50.142C658.169 50.0473 658.574 49.9754 658.987 49.9261C659.51 49.8655 659.934 49.8163 660.26 49.7784C660.585 49.7367 660.822 49.6705 660.97 49.5795C661.118 49.4886 661.191 49.3409 661.191 49.1364V49.0966C661.191 48.6004 661.051 48.2159 660.771 47.9432C660.494 47.6705 660.082 47.5341 659.532 47.5341C658.96 47.5341 658.51 47.661 658.18 47.9148C657.854 48.1648 657.629 48.4432 657.504 48.75L655.907 48.3864C656.097 47.8561 656.373 47.428 656.737 47.1023C657.104 46.7727 657.527 46.5341 658.004 46.3864C658.481 46.2348 658.983 46.1591 659.51 46.1591C659.858 46.1591 660.227 46.2008 660.618 46.2841C661.012 46.3636 661.379 46.5114 661.72 46.7273C662.065 46.9432 662.347 47.2519 662.566 47.6534C662.786 48.0511 662.896 48.5682 662.896 49.2045V55H661.237V53.8068H661.169C661.059 54.0265 660.894 54.2424 660.674 54.4545C660.455 54.6667 660.173 54.8428 659.828 54.983C659.483 55.1231 659.07 55.1932 658.589 55.1932ZM658.959 53.8295C659.428 53.8295 659.83 53.7367 660.163 53.5511C660.5 53.3655 660.756 53.1231 660.93 52.8239C661.108 52.5208 661.197 52.197 661.197 51.8523V50.7273C661.137 50.7879 661.019 50.8447 660.845 50.8977C660.674 50.947 660.479 50.9905 660.26 51.0284C660.04 51.0625 659.826 51.0947 659.618 51.125C659.409 51.1515 659.235 51.1742 659.095 51.1932C658.765 51.2348 658.464 51.3049 658.191 51.4034C657.923 51.5019 657.707 51.6439 657.544 51.8295C657.385 52.0114 657.305 52.2538 657.305 52.5568C657.305 52.9773 657.46 53.2955 657.771 53.5114C658.082 53.7235 658.477 53.8295 658.959 53.8295ZM665.175 55V46.2727H666.874V55H665.175ZM666.033 44.9261C665.737 44.9261 665.484 44.8277 665.271 44.6307C665.063 44.4299 664.959 44.1913 664.959 43.9148C664.959 43.6345 665.063 43.3958 665.271 43.1989C665.484 42.9981 665.737 42.8977 666.033 42.8977C666.328 42.8977 666.58 42.9981 666.788 43.1989C667.001 43.3958 667.107 43.6345 667.107 43.9148C667.107 44.1913 667.001 44.4299 666.788 44.6307C666.58 44.8277 666.328 44.9261 666.033 44.9261ZM672.988 44.875V43.3636H681.994V44.875H678.363V55H676.613V44.875H672.988ZM686.359 55.1761C685.499 55.1761 684.759 54.9924 684.138 54.625C683.52 54.2538 683.043 53.733 682.706 53.0625C682.372 52.3883 682.206 51.5985 682.206 50.6932C682.206 49.7992 682.372 49.0114 682.706 48.3295C683.043 47.6477 683.513 47.1155 684.115 46.733C684.721 46.3504 685.429 46.1591 686.24 46.1591C686.732 46.1591 687.21 46.2405 687.672 46.4034C688.134 46.5663 688.549 46.822 688.916 47.1705C689.283 47.5189 689.573 47.9716 689.785 48.5284C689.997 49.0814 690.103 49.7538 690.103 50.5455V51.1477H683.166V49.875H688.439C688.439 49.428 688.348 49.0322 688.166 48.6875C687.984 48.339 687.728 48.0644 687.399 47.8636C687.073 47.6629 686.691 47.5625 686.251 47.5625C685.774 47.5625 685.357 47.6799 685.001 47.9148C684.649 48.1458 684.376 48.4489 684.183 48.8239C683.994 49.1951 683.899 49.5985 683.899 50.0341V51.0284C683.899 51.6117 684.001 52.108 684.206 52.517C684.414 52.9261 684.704 53.2386 685.075 53.4545C685.446 53.6667 685.88 53.7727 686.376 53.7727C686.698 53.7727 686.992 53.7273 687.257 53.6364C687.522 53.5417 687.751 53.4015 687.944 53.2159C688.138 53.0303 688.285 52.8011 688.388 52.5284L689.996 52.8182C689.867 53.2917 689.636 53.7064 689.302 54.0625C688.973 54.4148 688.558 54.6894 688.058 54.8864C687.562 55.0795 686.996 55.1761 686.359 55.1761ZM698.544 48.4034L697.004 48.6761C696.94 48.4792 696.838 48.2917 696.698 48.1136C696.561 47.9356 696.376 47.7898 696.141 47.6761C695.906 47.5625 695.612 47.5057 695.26 47.5057C694.779 47.5057 694.378 47.6136 694.056 47.8295C693.734 48.0417 693.573 48.3163 693.573 48.6534C693.573 48.9451 693.681 49.1799 693.896 49.358C694.112 49.536 694.461 49.6818 694.942 49.7955L696.328 50.1136C697.131 50.2992 697.73 50.5852 698.124 50.9716C698.518 51.358 698.715 51.8598 698.715 52.4773C698.715 53 698.563 53.4659 698.26 53.875C697.961 54.2803 697.542 54.5985 697.004 54.8295C696.47 55.0606 695.851 55.1761 695.146 55.1761C694.169 55.1761 693.372 54.9678 692.754 54.5511C692.137 54.1307 691.758 53.5341 691.618 52.7614L693.26 52.5114C693.362 52.9394 693.573 53.2633 693.891 53.483C694.209 53.6989 694.624 53.8068 695.135 53.8068C695.692 53.8068 696.137 53.6913 696.47 53.4602C696.804 53.2254 696.97 52.9394 696.97 52.6023C696.97 52.3295 696.868 52.1004 696.664 51.9148C696.463 51.7292 696.154 51.589 695.737 51.4943L694.26 51.1705C693.446 50.9848 692.843 50.6894 692.453 50.2841C692.067 49.8788 691.874 49.3655 691.874 48.7443C691.874 48.2292 692.018 47.7784 692.306 47.392C692.593 47.0057 692.991 46.7045 693.499 46.4886C694.006 46.2689 694.588 46.1591 695.243 46.1591C696.186 46.1591 696.929 46.3636 697.47 46.7727C698.012 47.178 698.37 47.7216 698.544 48.4034ZM704.672 46.2727V47.6364H699.905V46.2727H704.672ZM701.184 44.1818H702.883V52.4375C702.883 52.767 702.932 53.0152 703.03 53.1818C703.129 53.3447 703.256 53.4564 703.411 53.517C703.57 53.5739 703.742 53.6023 703.928 53.6023C704.064 53.6023 704.184 53.5928 704.286 53.5739C704.388 53.5549 704.468 53.5398 704.525 53.5284L704.831 54.9318C704.733 54.9697 704.593 55.0076 704.411 55.0455C704.229 55.0871 704.002 55.1098 703.729 55.1136C703.282 55.1212 702.866 55.0417 702.479 54.875C702.093 54.7083 701.78 54.4508 701.542 54.1023C701.303 53.7538 701.184 53.3163 701.184 52.7898V44.1818Z" fill="white"/>
</svg>
